
<svg width="86px" height="64px" viewBox="0 0 86 64" version="1.1" xmlns="http://www.w3.org/2000/svg" xmlns:xlink="http://www.w3.org/1999/xlink">
    <!-- Generator: Sketch 51.2 (57519) - http://www.bohemiancoding.com/sketch -->
    <desc>Created with Sketch.</desc>
    <defs></defs>
    <g id="Page-1" stroke="none" stroke-width="1" fill="none" fill-rule="evenodd">
        <g id="Group" fill-rule="nonzero">
            <polygon id="Shape" fill="#00ADD1" points="0.38 44.24 5.15 50.37 43.12 50.37 43.12 44.24"></polygon>
            <path d="M60.52,39.86 L60.21,39.86 C58.5974333,40.0734918 56.9584227,39.9612774 55.39,39.53 L55.39,31.33 C55.7726294,31.6963492 56.2296522,31.9760199 56.73,32.15 C57.1784184,32.2590845 57.6385127,32.3128181 58.1,32.31 C59.3600912,32.3640314 60.5854478,31.8891151 61.48,31 C62.7814363,29.5519175 63.1239338,27.4800617 62.3577632,25.6901841 C61.5915926,23.9003065 59.8561042,22.7179483 57.91,22.66 C56.5312912,22.6155792 55.2122121,23.2232449 54.35,24.3 C53.4773651,25.446106 53.0317763,26.8606735 53.09,28.3 L53.09,50.37 L45.25,50.37 L45.25,27.57 C45.25,23.57 46.39,20.33 48.66,18.03 C50.93,15.73 54.01,14.58 58.05,14.58 C61.4406794,14.5558809 64.6997681,15.8907879 67.0992795,18.2865412 C69.4987908,20.6822945 70.8388045,23.9392869 70.82,27.33 C70.9645042,33.4814548 66.5831442,38.8114006 60.52,39.86" id="Shape" fill="#FA4F14"></path>
            <path d="M28.93,27.57 C28.93,23.57 27.78,20.33 25.52,18.03 C23.26,15.73 20.17,14.58 16.13,14.58 C12.7460991,14.5191998 9.4880595,15.8622362 7.13,18.29 C4.6934704,20.6428875 3.34576572,23.9034634 3.41,27.29 C3.25685739,33.4444323 7.64226304,38.7792995 13.71,39.82 L14.02,39.82 C15.6327239,40.0283991 17.2707275,39.9162536 18.84,39.49 L18.84,31.29 C18.4573706,31.6563492 18.0003478,31.9360199 17.5,32.11 C17.0515816,32.2190845 16.5914873,32.2728181 16.13,32.27 C14.8588008,32.3488245 13.61334,31.8876772 12.7,31 C10.8955663,29.0406659 10.9439396,26.010734 12.81,24.11 C13.7138005,23.1759114 14.9602641,22.6520354 16.26,22.66 C17.6369861,22.6131713 18.9557502,23.2169874 19.82,24.29 C20.6933914,25.435714 21.1390683,26.8505612 21.08,28.29 L21.08,39.52 L29.4,39.52 C29.0844081,38.9009655 28.9231606,38.2148059 28.93,37.52 L28.93,27.57 Z" id="Shape" fill="#FA4F14"></path>
            <polygon id="Shape" fill="#FA4F14" points="33.16 6.75 33.16 39.52 41 39.52 41 0.62"></polygon>
            <path d="M8.3,58.2 C8.53019994,58.3000186 8.73266798,58.4544434 8.89,58.65 C9.03775689,58.8400578 9.1372624,59.0630874 9.18,59.3 C9.1997436,59.5462716 9.1997436,59.7937284 9.18,60.04 L9.18,63.21 L7.87,63.21 L7.87,60 C7.87794928,59.8373155 7.84349004,59.675357 7.77,59.53 C7.65277334,59.2891328 7.39604826,59.1487363 7.13,59.18 C6.81008749,59.1567008 6.50998893,59.3367599 6.38,59.63 C6.30419401,59.8103135 6.26673351,60.0044269 6.27,60.2 L6.27,63.2 L5,63.2 L5,60.2 C5.01101361,59.9796071 4.98048306,59.7591087 4.91,59.55 C4.78652188,59.3041825 4.52352581,59.1607301 4.25,59.19 C3.95110962,59.1529989 3.65808272,59.2936518 3.5,59.55 C3.41772206,59.7459264 3.38014449,59.9577273 3.39,60.17 L3.39,63.17 L2,63.17 L2,58.17 L3.28,58.17 L3.28,58.9 C3.39743721,58.6894086 3.55349114,58.5028224 3.74,58.35 C4.02823403,58.1366134 4.38190374,58.0305125 4.74,58.05 C5.06796274,58.0390015 5.39175652,58.1260428 5.67,58.3 C5.86552135,58.4610201 6.01405823,58.6717352 6.1,58.91 C6.24936049,58.6351171 6.47511709,58.4093605 6.75,58.26 C7.02856592,58.1181459 7.33742012,58.04608 7.65,58.05 C7.87325675,58.0486378 8.09444076,58.0928746 8.3,58.18" id="Shape" fill="#9B9B9C"></path>
            <path d="M12.42,60.15 C12.5983104,60.1359132 12.7735481,60.0954737 12.94,60.03 C13.106589,59.9824767 13.2236534,59.8331187 13.23,59.66 C13.2415606,59.4870665 13.1570083,59.3218052 13.01,59.23 C12.8072581,59.1470408 12.5888062,59.1094944 12.37,59.12 C12.1235217,59.0927277 11.8777603,59.1770936 11.7,59.35 C11.6024776,59.4858688 11.5405896,59.6440271 11.52,59.81 L10.25,59.81 C10.2638522,59.4182587 10.3925154,59.0392239 10.62,58.72 C11.0850149,58.2325088 11.7500776,57.9886525 12.42,58.06 C12.9293596,58.0506629 13.4335074,58.1638389 13.89,58.39 C14.3320147,58.6332666 14.5844478,59.1184114 14.53,59.62 L14.53,61.93 C14.53,62.09 14.53,62.28 14.53,62.51 C14.5290883,62.6313002 14.5564806,62.7511412 14.61,62.86 C14.6597915,62.9251036 14.7251183,62.9766774 14.8,63.01 L14.8,63.21 L13.38,63.21 C13.3453762,63.1157066 13.3186182,63.0187087 13.3,62.92 C13.3,62.83 13.3,62.73 13.3,62.62 C13.1148755,62.8158104 12.9027336,62.9841771 12.67,63.12 C12.3650665,63.2904044 12.0190577,63.3734465 11.67,63.36 C11.2587135,63.3838369 10.8530058,63.2557187 10.53,63 C10.2265929,62.7173234 10.0652408,62.3139432 10.09,61.9 C10.050337,61.3516099 10.3308163,60.8296068 10.81,60.56 C11.1792437,60.3648641 11.5839062,60.2458457 12,60.21 L12.42,60.15 Z M13.22,60.76 C13.1409604,60.8111335 13.0572529,60.8546614 12.97,60.89 L12.62,60.98 L12.32,60.98 C12.1067303,61.0053649 11.8999515,61.0697714 11.71,61.17 C11.5090169,61.2779747 11.3883002,61.4921494 11.4,61.72 C11.3797648,61.9045278 11.4506551,62.0873502 11.59,62.21 C11.7218235,62.3108378 11.8840733,62.3637454 12.05,62.36 C12.3361362,62.3616213 12.6157009,62.2742574 12.85,62.11 C13.1135153,61.8845504 13.2514238,61.5453699 13.22,61.2 L13.22,60.76 Z" id="Shape" fill="#9B9B9C"></path>
            <path d="M18.47,58.06 L18.59,58.06 L18.59,59.41 L18.36,59.41 L18.21,59.41 C17.7822831,59.3588748 17.3640841,59.5621117 17.14,59.93 C17.0228395,60.2113621 16.9715332,60.5157794 16.99,60.82 L16.99,63.23 L15.67,63.23 L15.67,58.23 L16.92,58.23 L16.92,59.11 C17.0568164,58.8519662 17.2359718,58.6187262 17.45,58.42 C17.7326324,58.1948602 18.0895784,58.0842069 18.45,58.11 L18.51,58.11" id="Shape" fill="#9B9B9C"></path>
            <path d="M20.71,57.58 L19.37,57.58 L19.37,56.37 L20.71,56.37 L20.71,57.58 Z M19.37,58.18 L20.71,58.18 L20.71,63.18 L19.37,63.18 L19.37,58.18 Z" id="Shape" fill="#9B9B9C"></path>
            <path d="M21.46,59.16 L21.46,58.23 L22.16,58.23 L22.16,56.83 L23.46,56.83 L23.46,58.23 L24.28,58.23 L24.28,59.16 L23.46,59.16 L23.46,61.82 C23.4438057,61.9520327 23.4719469,62.0857036 23.54,62.2 C23.6887845,62.2728751 23.8556227,62.3006815 24.02,62.28 L24.28,62.28 L24.28,63.28 L23.66,63.28 C23.2130405,63.3625926 22.7516533,63.2616641 22.38,63 C22.2230314,62.8055662 22.1445464,62.559409 22.16,62.31 L22.16,59.21 L21.46,59.16 Z" id="Shape" fill="#9B9B9C"></path>
            <path d="M26.47,57.58 L25.14,57.58 L25.14,56.37 L26.47,56.37 L26.47,57.58 Z M25.14,58.18 L26.47,58.18 L26.47,63.18 L25.14,63.18 L25.14,58.18 Z" id="Shape" fill="#9B9B9C"></path>
            <path d="M34,58.2 C34.226987,58.3007092 34.4260498,58.4551545 34.58,58.65 C34.7277569,58.8400578 34.8272624,59.0630874 34.87,59.3 C34.8897436,59.5462716 34.8897436,59.7937284 34.87,60.04 L34.87,63.21 L33.58,63.21 L33.58,60 C33.5862183,59.8385212 33.5554339,59.6777582 33.49,59.53 C33.3649421,59.2917358 33.1077571,59.1532515 32.84,59.18 C32.5200875,59.1567008 32.2199889,59.3367599 32.09,59.63 C32.014194,59.8103135 31.9767335,60.0044269 31.98,60.2 L31.98,63.2 L30.66,63.2 L30.66,60.2 C30.6710136,59.9796071 30.6404831,59.7591087 30.57,59.55 C30.4500372,59.3057826 30.1906591,59.162127 29.92,59.19 C29.6181304,59.1514673 29.3214147,59.2920168 29.16,59.55 C29.0777221,59.7459264 29.0401445,59.9577273 29.05,60.17 L29.05,63.17 L27.72,63.17 L27.72,58.17 L29,58.17 L29,58.9 C29.1206702,58.6916522 29.2762711,58.5056077 29.46,58.35 C29.7497103,58.1395775 30.1023029,58.0337998 30.46,58.05 C30.7883177,58.03585 31.1130296,58.1231382 31.39,58.3 C31.5854521,58.4632627 31.7367505,58.6730174 31.83,58.91 C31.972796,58.6336729 32.1959199,58.4070627 32.47,58.26 C32.7485659,58.1181459 33.0574201,58.04608 33.37,58.05 C33.596412,58.0494713 33.8207006,58.0936494 34.03,58.18" id="Shape" fill="#9B9B9C"></path>
            <path d="M39.42,58.28 C39.7715702,58.4440318 40.069675,58.7040069 40.28,59.03 C40.4892748,59.3276968 40.6262357,59.670099 40.68,60.03 C40.7051361,60.3628595 40.7051361,60.6971405 40.68,61.03 L37.07,61.03 C37.0434711,61.4504716 37.2412465,61.8536293 37.59,62.09 C37.8096719,62.2229922 38.0633655,62.2890221 38.32,62.28 C38.5825677,62.2897499 38.840443,62.2085015 39.05,62.05 C39.160088,61.9541825 39.251611,61.8389314 39.32,61.71 L40.66,61.71 C40.5983526,62.0551168 40.4264139,62.3709227 40.17,62.61 C39.6773556,63.1194272 38.9875692,63.3895024 38.28,63.35 C37.6355781,63.3571171 37.0091252,63.1376816 36.51,62.73 C35.9573395,62.2186315 35.6729498,61.4799571 35.74,60.73 C35.6933872,59.9961188 35.9459069,59.2746341 36.44,58.73 C36.9167862,58.2642445 37.5639541,58.0147775 38.23,58.04 C38.6385956,58.030145 39.0445046,58.108598 39.42,58.27 M37.42,59.41 C37.2219138,59.6252176 37.0990857,59.8989489 37.07,60.19 L39.33,60.19 C39.3299129,59.8862114 39.2030512,59.5962418 38.98,59.39 C38.7618968,59.2074126 38.4843095,59.1113247 38.2,59.12 C37.9113391,59.1063002 37.6295987,59.2110499 37.42,59.41" id="Shape" fill="#9B9B9C"></path>
            <path d="M45,61.6 C44.9987643,61.7827462 45.0625666,61.9599747 45.18,62.1 C45.4334456,62.3029836 45.7573538,62.3965571 46.08,62.36 C46.2921217,62.367613 46.5034439,62.3301204 46.7,62.25 C46.867426,62.2142344 46.9902615,62.0709263 47,61.9 C47.0091722,61.7643793 46.9389909,61.6357136 46.82,61.57 C46.3739212,61.3926347 45.9117841,61.258682 45.44,61.17 C45.001581,61.087743 44.5877308,60.9064698 44.23,60.64 C43.9889946,60.4010147 43.8647459,60.0684668 43.89,59.73 C43.8871799,59.2734225 44.0845268,58.8385284 44.43,58.54 C44.8601094,58.1818125 45.4115132,58.0027853 45.97,58.04 C46.5079288,58.0159019 47.0417332,58.1441536 47.51,58.41 C47.9324049,58.7088796 48.1854122,59.19257 48.19,59.71 L46.85,59.71 C46.8392729,59.5650674 46.7872161,59.4262492 46.7,59.31 C46.5253021,59.106463 46.2681259,58.9925706 46,59 C45.7871628,58.9835737 45.5743745,59.0324103 45.39,59.14 C45.2819683,59.2067631 45.2144291,59.3230805 45.21,59.45 C45.2027187,59.5878426 45.2771342,59.7170906 45.4,59.78 C45.8491578,59.9382674 46.3107671,60.0586872 46.78,60.14 C47.213076,60.2186337 47.6171223,60.4120234 47.95,60.7 C48.2213945,60.9593184 48.3641707,61.3254112 48.34,61.7 C48.3496293,62.1680501 48.1430421,62.6144259 47.78,62.91 C47.2820814,63.2696381 46.6721916,63.4398399 46.06,63.39 C45.4355692,63.4387078 44.8144446,63.2612436 44.31,62.89 C43.9381221,62.5700586 43.7289966,62.1004433 43.74,61.61 L45,61.6 Z" id="Shape" fill="#9B9B9C"></path>
            <path d="M52.54,58.28 C52.8943559,58.4438381 53.1957393,58.7036515 53.41,59.03 C53.6152691,59.3298515 53.751849,59.6713012 53.81,60.03 C53.8392962,60.3626896 53.8392962,60.6973104 53.81,61.03 L50.19,61.03 C50.1676952,61.4520079 50.3690108,61.8546391 50.72,62.09 C50.9361052,62.2227319 51.186541,62.2888192 51.44,62.28 C51.7027922,62.2914352 51.9612251,62.2100111 52.17,62.05 C52.2838136,61.9578075 52.3759857,61.8417389 52.44,61.71 L53.79,61.71 C53.7283526,62.0551168 53.5564139,62.3709227 53.3,62.61 C52.8073556,63.1194272 52.1175692,63.3895024 51.41,63.35 C50.7655781,63.3571171 50.1391252,63.1376816 49.64,62.73 C49.0873395,62.2186315 48.8029498,61.4799571 48.87,60.73 C48.8240903,59.9979942 49.0724958,59.277978 49.56,58.73 C50.0392072,58.2616683 50.6905302,58.0119945 51.36,58.04 C51.7653738,58.0300055 52.1680543,58.108494 52.54,58.27 M50.54,59.41 C50.3380649,59.6226584 50.2146152,59.8977749 50.19,60.19 L52.45,60.19 C52.4499129,59.8862114 52.3230512,59.5962418 52.1,59.39 C51.8818968,59.2074126 51.6043095,59.1113247 51.32,59.12 C51.0302159,59.0987569 50.7455212,59.2046049 50.54,59.41" id="Shape" fill="#9B9B9C"></path>
            <path d="M57.31,58.06 L57.42,58.06 L57.42,59.41 L57.2,59.41 L57,59.41 C56.5756975,59.362959 56.1624942,59.5656625 55.94,59.93 C55.8228395,60.2113621 55.7715332,60.5157794 55.79,60.82 L55.79,63.23 L54.5,63.23 L54.5,58.23 L55.76,58.23 L55.76,59.11 C55.8968164,58.8519662 56.0759718,58.6187262 56.29,58.42 C56.5716831,58.193072 56.9293497,58.0821953 57.29,58.11 L57.35,58.11" id="Shape" fill="#9B9B9C"></path>
            <polygon id="Shape" fill="#9B9B9C" points="61.29 58.18 62.7 58.18 60.89 63.21 59.5 63.21 57.7 58.18 59.17 58.18 60.22 61.89"></polygon>
            <path d="M64.8,57.58 L63.46,57.58 L63.46,56.37 L64.8,56.37 L64.8,57.58 Z M63.46,58.18 L64.8,58.18 L64.8,63.18 L63.46,63.18 L63.46,58.18 Z" id="Shape" fill="#9B9B9C"></path>
            <path d="M69.07,60 C69.053242,59.819173 68.9875589,59.6463227 68.88,59.5 C68.7214122,59.2814152 68.4587416,59.1634038 68.19,59.19 C67.7707982,59.1739461 67.3949424,59.4465448 67.28,59.85 C67.1867776,60.1509565 67.1428767,60.4650167 67.15,60.78 C67.1432671,61.0818485 67.18721,61.3826886 67.28,61.67 C67.3988968,62.0566654 67.7660917,62.3124641 68.17,62.29 C68.4150449,62.31449 68.6579227,62.2261709 68.83,62.05 C68.9696695,61.8610636 69.0497557,61.634733 69.06,61.4 L70.41,61.4 C70.3780553,61.8037431 70.2362715,62.1910551 70,62.52 C69.5760186,63.0993124 68.8865802,63.4233108 68.17,63.38 C67.4933419,63.4346213 66.8303718,63.1679518 66.38,62.66 C65.5990084,61.4777376 65.6228257,59.9375485 66.44,58.78 C66.8858833,58.2897659 67.5282217,58.0254895 68.19,58.06 C68.7392883,58.0344937 69.2823584,58.1851519 69.74,58.49 C70.1741942,58.8714401 70.4221548,59.4220583 70.42,60 L69.07,60 Z" id="Shape" fill="#9B9B9C"></path>
            <path d="M74.59,58.28 C74.9443559,58.4438381 75.2457393,58.7036515 75.46,59.03 C75.6692748,59.3276968 75.8062357,59.670099 75.86,60.03 C75.8851361,60.3628595 75.8851361,60.6971405 75.86,61.03 L72.25,61.03 C72.2234711,61.4504716 72.4212465,61.8536293 72.77,62.09 C72.989207,62.2240897 73.2432363,62.2902069 73.5,62.28 C73.7595164,62.289923 74.0142966,62.2085349 74.22,62.05 C74.3361098,61.9575218 74.4315022,61.8416882 74.5,61.71 L75.84,61.71 C75.7783526,62.0551168 75.6064139,62.3709227 75.35,62.61 C74.8573556,63.1194272 74.1675692,63.3895024 73.46,63.35 C72.8155781,63.3571171 72.1891252,63.1376816 71.69,62.73 C71.1373395,62.2186315 70.8529498,61.4799571 70.92,60.73 C70.8740903,59.9979942 71.1224958,59.277978 71.61,58.73 C72.0917772,58.2656934 72.7413093,58.0167061 73.41,58.04 C73.8153738,58.0300055 74.2180543,58.108494 74.59,58.27 M72.59,59.41 C72.3880649,59.6226584 72.2646152,59.8977749 72.24,60.19 L74.5,60.19 C74.4999129,59.8862114 74.3730512,59.5962418 74.15,59.39 C73.9318968,59.2074126 73.6543095,59.1113247 73.37,59.12 C73.0802159,59.0987569 72.7955212,59.2046049 72.59,59.41" id="Shape" fill="#9B9B9C"></path>
            <path d="M77.59,61.6 C77.5983058,61.7809851 77.6610411,61.95525 77.77,62.1 C78.027532,62.3025869 78.3543137,62.3959531 78.68,62.36 C78.8920581,62.3667175 79.1031956,62.3292576 79.3,62.25 C79.4398406,62.1899215 79.5303436,62.0521995 79.53,61.9 C79.5347871,61.7627659 79.4610873,61.6347609 79.34,61.57 C78.8944876,61.3909875 78.4321864,61.2569872 77.96,61.17 C77.5237868,61.0904841 77.1125823,60.9088688 76.76,60.64 C76.5164831,60.402042 76.3887016,60.0698101 76.41,59.73 C76.4167073,59.2645497 76.6335892,58.8271099 77,58.54 C77.4123229,58.1744246 77.949274,57.9811222 78.5,58 C79.0347813,57.9756087 79.565458,58.1039423 80.03,58.37 C80.4549883,58.6666133 80.7087471,59.1517404 80.71,59.67 L79.4,59.67 C79.3874304,59.5270759 79.3393025,59.3895676 79.26,59.27 C79.0662855,59.0736112 78.7946708,58.9745085 78.52,59 C78.3069247,58.9801966 78.0931162,59.0292674 77.91,59.14 C77.796761,59.2029424 77.7246919,59.3205287 77.72,59.45 C77.7145321,59.5901348 77.7932402,59.7200032 77.92,59.78 C78.3655303,59.9389607 78.8238779,60.0594024 79.29,60.14 C79.723076,60.2186337 80.1271223,60.4120234 80.46,60.7 C80.7313945,60.9593184 80.8741707,61.3254112 80.85,61.7 C80.8635815,62.1666709 80.6605317,62.6133805 80.3,62.91 C79.2322768,63.5643429 77.8877232,63.5643429 76.82,62.91 C76.4541276,62.5864865 76.2492834,62.1182712 76.26,61.63 L77.59,61.6 Z" id="Shape" fill="#9B9B9C"></path>
            <path d="M81.93,56.77 L82.28,56.77 L82.28,57.84 C82.353369,57.7392859 82.4492496,57.6571025 82.56,57.6 C82.6728034,57.5476154 82.795627,57.5203213 82.92,57.52 C83.167865,57.5102132 83.4068378,57.6131553 83.57,57.8 C83.7528059,58.0247587 83.8423017,58.3111452 83.82,58.6 C83.8339636,58.9002034 83.7458436,59.1962868 83.57,59.44 C83.4176471,59.6636048 83.1602956,59.7922806 82.89,59.78 C82.7440801,59.7843797 82.6005311,59.7423654 82.48,59.66 C82.3968736,59.5971613 82.3228387,59.5231264 82.26,59.44 L82.26,59.71 L81.93,59.71 L81.93,56.77 Z M83.3,59.23 C83.4082296,59.0455693 83.4603554,58.833591 83.45,58.62 C83.4563931,58.4226169 83.4041993,58.2277601 83.3,58.06 C83.2131185,57.9128789 83.0504128,57.8276521 82.88,57.84 C82.7152426,57.8391536 82.5569239,57.9039203 82.44,58.02 C82.303934,58.1888121 82.2393277,58.4041664 82.26,58.62 C82.2563746,58.7868585 82.2834931,58.9529591 82.34,59.11 C82.4166188,59.3335394 82.6343294,59.4773105 82.87,59.46 C83.0445032,59.4672737 83.2091855,59.3791878 83.3,59.23 Z" id="Shape" fill="#9B9B9C"></path>
            <polygon id="Shape" fill="#9B9B9C" points="84.41 57.58 84.98 59.31 85.57 57.58 85.97 57.58 85.16 59.71 84.78 59.71 83.99 57.58"></polygon>
        </g>
    </g>
</svg>